HIERARCHY
ROOT mixamorig:Hips
{
	OFFSET 0.000000 201.639420 0.000000
	CHANNELS 6 Xposition Yposition Zposition Xrotation Yrotation Zrotation
	JOINT mixamorig:Spine
	{
		OFFSET 0.006200 19.524994 -2.481800
		CHANNELS 3 Xrotation Yrotation Zrotation
		JOINT mixamorig:Spine1
		{
			OFFSET -0.000900 22.835007 -2.825400
			CHANNELS 3 Xrotation Yrotation Zrotation
			JOINT mixamorig:Spine2
			{
				OFFSET -0.020600 26.552490 -3.193300
				CHANNELS 3 Xrotation Yrotation Zrotation
				JOINT mixamorig:Neck
				{
					OFFSET -0.060000 30.701813 1.352200
					CHANNELS 3 Xrotation Yrotation Zrotation
					JOINT mixamorig:Head
					{
						OFFSET -0.087200 22.547607 3.670900
						CHANNELS 3 Xrotation Yrotation Zrotation
						JOINT mixamorig:HeadTop_End
						{
							OFFSET -0.830600 40.355194 7.893500
							CHANNELS 3 Xrotation Yrotation Zrotation
							End Site
							{
								OFFSET 0.000000 30.592346 0.000000
							}
						}
						JOINT mixamorig:RightEye
						{
							OFFSET -6.302100 18.118591 16.197100
							CHANNELS 3 Xrotation Yrotation Zrotation
							End Site
							{
								OFFSET 0.000000 30.592346 0.000000
							}
						}
						JOINT mixamorig:LeftEye
						{
							OFFSET 6.741500 18.382690 16.401899
							CHANNELS 3 Xrotation Yrotation Zrotation
							End Site
							{
								OFFSET 0.000000 30.592346 0.000000
							}
						}
					}
				}
				JOINT mixamorig:LeftShoulder
				{
					OFFSET 11.924900 18.230499 1.425400
					CHANNELS 3 Xrotation Yrotation Zrotation
					JOINT mixamorig:LeftArm
					{
						OFFSET 25.435989 -0.697632 -5.229300
						CHANNELS 3 Xrotation Yrotation Zrotation
						JOINT mixamorig:LeftForeArm
						{
							OFFSET 54.684776 0.000000 0.000000
							CHANNELS 3 Xrotation Yrotation Zrotation
							JOINT mixamorig:LeftHand
							{
								OFFSET 55.098175 0.000000 0.000000
								CHANNELS 3 Xrotation Yrotation Zrotation
								JOINT mixamorig:LeftHandMiddle1
								{
									OFFSET 23.369751 0.000000 0.000000
									CHANNELS 3 Xrotation Yrotation Zrotation
									JOINT mixamorig:LeftHandMiddle2
									{
										OFFSET 6.378677 0.000000 0.000000
										CHANNELS 3 Xrotation Yrotation Zrotation
										JOINT mixamorig:LeftHandMiddle3
										{
											OFFSET 6.148331 0.000000 0.000000
											CHANNELS 3 Xrotation Yrotation Zrotation
											JOINT mixamorig:LeftHandMiddle4
											{
												OFFSET 6.582504 0.000000 0.000000
												CHANNELS 3 Xrotation Yrotation Zrotation
												End Site
												{
													OFFSET -1.168900 6.395691 1.028606
												}
											}
										}
									}
								}
								JOINT mixamorig:LeftHandThumb1
								{
									OFFSET 7.235672 -3.848206 5.434273
									CHANNELS 3 Xrotation Yrotation Zrotation
									JOINT mixamorig:LeftHandThumb2
									{
										OFFSET 6.568451 -3.792297 3.792300
										CHANNELS 3 Xrotation Yrotation Zrotation
										JOINT mixamorig:LeftHandThumb3
										{
											OFFSET 6.063080 -3.500519 3.500518
											CHANNELS 3 Xrotation Yrotation Zrotation
											JOINT mixamorig:LeftHandThumb4
											{
												OFFSET 4.793182 -2.767334 2.767349
												CHANNELS 3 Xrotation Yrotation Zrotation
												End Site
												{
													OFFSET 0.101639 6.054260 1.275483
												}
											}
										}
									}
								}
								JOINT mixamorig:LeftHandIndex1
								{
									OFFSET 23.101074 -0.309540 4.992809
									CHANNELS 3 Xrotation Yrotation Zrotation
									JOINT mixamorig:LeftHandIndex2
									{
										OFFSET 6.226883 0.000000 0.000000
										CHANNELS 3 Xrotation Yrotation Zrotation
										JOINT mixamorig:LeftHandIndex3
										{
											OFFSET 6.094330 0.000000 0.000000
											CHANNELS 3 Xrotation Yrotation Zrotation
											JOINT mixamorig:LeftHandIndex4
											{
												OFFSET 5.482605 0.000000 0.000000
												CHANNELS 3 Xrotation Yrotation Zrotation
												End Site
												{
													OFFSET -1.427902 5.233032 0.797164
												}
											}
										}
									}
								}
								JOINT mixamorig:LeftHandRing1
								{
									OFFSET 22.299240 0.021149 -3.964172
									CHANNELS 3 Xrotation Yrotation Zrotation
									JOINT mixamorig:LeftHandRing2
									{
										OFFSET 6.321869 0.000000 0.000000
										CHANNELS 3 Xrotation Yrotation Zrotation
										JOINT mixamorig:LeftHandRing3
										{
											OFFSET 5.899796 0.000000 0.000000
											CHANNELS 3 Xrotation Yrotation Zrotation
											JOINT mixamorig:LeftHandRing4
											{
												OFFSET 6.517899 0.000000 0.000000
												CHANNELS 3 Xrotation Yrotation Zrotation
												End Site
												{
													OFFSET -1.637299 6.232208 0.980890
												}
											}
										}
									}
								}
								JOINT mixamorig:LeftHandPinky1
								{
									OFFSET 20.463791 -0.302338 -8.562233
									CHANNELS 3 Xrotation Yrotation Zrotation
									JOINT mixamorig:LeftHandPinky2
									{
										OFFSET 6.908646 0.000000 0.000000
										CHANNELS 3 Xrotation Yrotation Zrotation
										JOINT mixamorig:LeftHandPinky3
										{
											OFFSET 4.622849 0.000000 0.000000
											CHANNELS 3 Xrotation Yrotation Zrotation
											JOINT mixamorig:LeftHandPinky4
											{
												OFFSET 5.216080 0.000000 0.000000
												CHANNELS 3 Xrotation Yrotation Zrotation
												End Site
												{
													OFFSET -0.606308 5.116241 0.814926
												}
											}
										}
									}
								}
							}
						}
					}
				}
				JOINT mixamorig:RightShoulder
				{
					OFFSET -12.001300 18.284088 1.348900
					CHANNELS 3 Xrotation Yrotation Zrotation
					JOINT mixamorig:RightArm
					{
						OFFSET -25.308500 -0.751312 -5.164599
						CHANNELS 3 Xrotation Yrotation Zrotation
						JOINT mixamorig:RightForeArm
						{
							OFFSET -54.684429 0.000000 0.000000
							CHANNELS 3 Xrotation Yrotation Zrotation
							JOINT mixamorig:RightHand
							{
								OFFSET -55.150291 0.000000 0.000000
								CHANNELS 3 Xrotation Yrotation Zrotation
								JOINT mixamorig:RightHandMiddle1
								{
									OFFSET -23.317566 0.000000 0.000000
									CHANNELS 3 Xrotation Yrotation Zrotation
									JOINT mixamorig:RightHandMiddle2
									{
										OFFSET -6.378403 0.000000 0.000000
										CHANNELS 3 Xrotation Yrotation Zrotation
										JOINT mixamorig:RightHandMiddle3
										{
											OFFSET -6.148193 0.000000 0.000000
											CHANNELS 3 Xrotation Yrotation Zrotation
											JOINT mixamorig:RightHandMiddle4
											{
												OFFSET -6.583389 0.000000 0.000000
												CHANNELS 3 Xrotation Yrotation Zrotation
												End Site
												{
													OFFSET 1.171692 6.395905 1.029786
												}
											}
										}
									}
								}
								JOINT mixamorig:RightHandThumb1
								{
									OFFSET -7.190521 -3.860474 5.435846
									CHANNELS 3 Xrotation Yrotation Zrotation
									JOINT mixamorig:RightHandThumb2
									{
										OFFSET -6.567429 -3.791718 3.791708
										CHANNELS 3 Xrotation Yrotation Zrotation
										JOINT mixamorig:RightHandThumb3
										{
											OFFSET -6.062469 -3.500153 3.500166
											CHANNELS 3 Xrotation Yrotation Zrotation
											JOINT mixamorig:RightHandThumb4
											{
												OFFSET -4.792618 -2.767029 2.767022
												CHANNELS 3 Xrotation Yrotation Zrotation
												End Site
												{
													OFFSET -0.100327 6.053253 1.276754
												}
											}
										}
									}
								}
								JOINT mixamorig:RightHandIndex1
								{
									OFFSET -23.048981 -0.310791 4.992554
									CHANNELS 3 Xrotation Yrotation Zrotation
									JOINT mixamorig:RightHandIndex2
									{
										OFFSET -6.227539 0.000000 0.000000
										CHANNELS 3 Xrotation Yrotation Zrotation
										JOINT mixamorig:RightHandIndex3
										{
											OFFSET -6.095047 0.000000 0.000000
											CHANNELS 3 Xrotation Yrotation Zrotation
											JOINT mixamorig:RightHandIndex4
											{
												OFFSET -5.484772 0.000000 0.000000
												CHANNELS 3 Xrotation Yrotation Zrotation
												End Site
												{
													OFFSET 1.420593 5.237305 0.797056
												}
											}
										}
									}
								}
								JOINT mixamorig:RightHandRing1
								{
									OFFSET -22.246323 0.020569 -3.963762
									CHANNELS 3 Xrotation Yrotation Zrotation
									JOINT mixamorig:RightHandRing2
									{
										OFFSET -6.322128 0.000000 0.000000
										CHANNELS 3 Xrotation Yrotation Zrotation
										JOINT mixamorig:RightHandRing3
										{
											OFFSET -5.900024 0.000000 0.000000
											CHANNELS 3 Xrotation Yrotation Zrotation
											JOINT mixamorig:RightHandRing4
											{
												OFFSET -6.518356 0.000000 0.000000
												CHANNELS 3 Xrotation Yrotation Zrotation
												End Site
												{
													OFFSET 1.636398 6.232697 0.982186
												}
											}
										}
									}
								}
								JOINT mixamorig:RightHandPinky1
								{
									OFFSET -20.411011 -0.303314 -8.561701
									CHANNELS 3 Xrotation Yrotation Zrotation
									JOINT mixamorig:RightHandPinky2
									{
										OFFSET -6.907349 0.000000 0.000000
										CHANNELS 3 Xrotation Yrotation Zrotation
										JOINT mixamorig:RightHandPinky3
										{
											OFFSET -4.623840 0.000000 0.000000
											CHANNELS 3 Xrotation Yrotation Zrotation
											JOINT mixamorig:RightHandPinky4
											{
												OFFSET -5.218353 0.000000 0.000000
												CHANNELS 3 Xrotation Yrotation Zrotation
												End Site
												{
													OFFSET 0.602097 5.118835 0.816273
												}
											}
										}
									}
								}
							}
						}
					}
				}
			}
		}
	}
	JOINT mixamorig:LeftUpLeg
	{
		OFFSET 18.168400 -13.561905 -0.039000
		CHANNELS 3 Xrotation Yrotation Zrotation
		JOINT mixamorig:LeftLeg
		{
			OFFSET 0.577358 -80.825211 -3.695000
			CHANNELS 3 Xrotation Yrotation Zrotation
			JOINT mixamorig:LeftFoot
			{
				OFFSET -0.577356 -83.370262 -6.520700
				CHANNELS 3 Xrotation Yrotation Zrotation
				JOINT mixamorig:LeftToeBase
				{
					OFFSET 0.750401 -20.798306 25.135401
					CHANNELS 3 Xrotation Yrotation Zrotation
					JOINT mixamorig:LeftToe_End
					{
						OFFSET -0.000500 0.001200 19.917799
						CHANNELS 3 Xrotation Yrotation Zrotation
						End Site
						{
							OFFSET 0.000000 19.917805 0.000000
						}
					}
				}
			}
		}
	}
	JOINT mixamorig:RightUpLeg
	{
		OFFSET -18.162500 -13.585098 -0.041000
		CHANNELS 3 Xrotation Yrotation Zrotation
		JOINT mixamorig:RightLeg
		{
			OFFSET -0.595024 -80.945297 -3.631900
			CHANNELS 3 Xrotation Yrotation Zrotation
			JOINT mixamorig:RightFoot
			{
				OFFSET 0.595024 -83.218193 -6.561200
				CHANNELS 3 Xrotation Yrotation Zrotation
				JOINT mixamorig:RightToeBase
				{
					OFFSET -0.753601 -20.807106 25.115000
					CHANNELS 3 Xrotation Yrotation Zrotation
					JOINT mixamorig:RightToe_End
					{
						OFFSET 0.000299 0.001700 19.918200
						CHANNELS 3 Xrotation Yrotation Zrotation
						End Site
						{
							OFFSET 0.000000 19.918203 0.000000
						}
					}
				}
			}
		}
	}
}
MOTION
Frames: 4
Frame Time: 0.033333
-0.475991 191.685318 3.418312 -15.030412 -6.041341 -0.055258 1.928564 0.787168 -1.325495 3.906022 0.758186 0.154383 3.903940 0.765381 0.155825 10.189683 2.338921 0.463158 -16.697181 16.882515 -5.906587 -0.000000 0.000001 -0.000000 -0.000000 0.000001 -0.000000 -0.000000 0.000001 -0.000000 1.162842 -13.624585 -11.785318 36.856131 3.930519 -60.273202 0.000178 -79.652409 0.000163 6.123632 -3.440449 6.006366 -0.000010 -0.001930 0.015970 0.000007 0.001932 -0.015958 0.000003 0.000005 -0.000005 0.000003 0.000003 -0.000001 -1.540041 3.690189 6.142361 3.939034 7.948704 0.746810 -0.579460 1.574998 2.538704 0.000002 0.000000 0.000001 -0.000006 0.000003 0.000005 -0.000009 0.000015 -0.000038 0.000004 0.000008 0.000009 0.000003 0.000001 -0.000001 -0.000005 0.000003 0.000001 -0.000019 0.000001 -0.000027 0.000003 -0.000000 0.000001 -0.000005 -0.000000 0.000002 -0.018085 4.054256 0.511066 -0.018098 -4.054258 -0.511077 0.000001 0.000009 -0.000004 0.000000 -0.000001 0.000003 0.195799 -11.309349 9.715507 35.917581 8.509603 56.243503 -0.000032 76.190535 0.000035 9.763043 0.624728 1.425166 -0.000007 0.000017 0.000013 0.000001 -0.000013 -0.000001 0.000003 -0.000005 -0.000000 -0.000001 0.000002 0.000001 -1.849257 -3.581779 -6.586124 4.637209 -8.634138 -0.225417 -1.273747 0.137311 -2.094886 -0.000002 0.000001 0.000001 -0.000003 0.000001 -0.000002 0.000000 0.000007 0.000026 0.000002 -0.000017 -0.000013 -0.000002 -0.000001 0.000001 -0.000008 0.000008 0.000014 0.000010 0.000004 0.000036 0.000003 0.000002 0.000001 0.000000 0.000002 -0.000001 -0.000007 0.000005 0.000012 0.000004 0.000002 0.000073 0.000007 0.000004 -0.000012 -0.000001 -0.000001 0.000001 -0.340088 10.673608 19.415721 27.100533 -8.884616 -5.388043 -6.779673 11.610271 -11.387775 -10.377991 -0.000005 -0.000002 -0.000000 0.000001 0.000000 -3.815636 -13.729274 -19.436212 31.690859 9.839850 4.227665 -15.825801 6.046798 6.147945 -3.301167 -0.000001 -0.000003 0.000000 -0.000001 -0.000000 
-0.043785 191.775726 3.315308 -14.775758 -5.214420 -0.103290 1.960373 0.799132 -1.236522 3.985576 0.755419 0.342587 3.983464 0.765469 0.345690 9.859149 2.197386 0.564844 -17.186271 16.423169 -6.388929 -0.000001 0.000000 0.000001 -0.000001 0.000000 0.000001 -0.000001 0.000000 0.000001 1.153487 -13.626043 -11.786487 36.615777 3.677021 -60.291405 0.000114 -79.623975 0.000137 6.333560 -3.393846 6.029747 -0.000003 -0.001932 0.015967 0.000011 0.001929 -0.015959 -0.000000 0.000008 -0.000007 0.000004 -0.000001 0.000002 -1.540032 3.690189 6.142361 3.939037 7.948704 0.746808 -0.579469 1.575000 2.538706 0.000001 -0.000001 0.000001 0.000000 0.000004 0.000005 -0.000006 0.000014 -0.000035 0.000001 0.000006 0.000010 -0.000000 -0.000002 0.000000 0.000001 0.000004 0.000001 -0.000015 0.000001 -0.000027 0.000002 -0.000002 -0.000001 -0.000001 0.000001 0.000003 -0.018078 4.054258 0.511065 -0.018100 -4.054258 -0.511078 -0.000002 0.000007 -0.000006 -0.000001 0.000000 0.000002 0.231002 -11.723112 9.477810 35.226147 9.853444 55.668002 -0.000091 75.878798 0.000114 9.954577 0.612822 1.591156 -0.000009 0.000014 0.000013 0.000004 -0.000013 -0.000002 0.000001 -0.000004 -0.000000 0.000005 0.000002 0.000000 -1.849252 -3.581775 -6.586119 4.637208 -8.634135 -0.225417 -1.273751 0.137311 -2.094887 0.000001 -0.000001 0.000004 -0.000004 -0.000005 0.000000 -0.000008 0.000010 0.000028 0.000001 -0.000015 -0.000015 0.000002 0.000002 -0.000004 -0.000013 0.000006 0.000013 0.000009 0.000009 0.000033 0.000003 -0.000004 -0.000000 0.000000 -0.000002 0.000002 -0.000006 0.000004 0.000011 -0.000003 -0.000003 0.000073 0.000006 0.000004 -0.000016 0.000002 -0.000000 0.000000 -1.253696 10.839426 19.732459 27.516518 -8.902165 -5.287332 -6.830421 10.487023 -11.178405 -10.344749 -0.000010 -0.000001 -0.000000 -0.000000 0.000000 -3.650986 -14.145037 -19.321299 31.100184 9.845183 4.318273 -15.579600 5.593227 6.254141 -3.306143 0.000007 -0.000002 0.000000 -0.000001 0.000000 
0.645926 192.067505 3.276672 -14.784820 -3.309711 0.321199 2.063829 0.730249 -1.162095 4.156714 0.616479 0.459462 4.154581 0.627333 0.465181 9.664385 1.988340 0.649147 -17.369149 15.705125 -7.092547 -0.000000 -0.000000 -0.000001 -0.000000 -0.000000 -0.000001 -0.000000 -0.000000 -0.000001 1.155440 -13.684233 -11.725621 36.530495 3.593207 -60.242972 -0.000006 -79.759213 -0.000038 6.342266 -3.204978 6.007029 -0.000007 -0.001932 0.015969 0.000011 0.001929 -0.015961 0.000002 0.000007 -0.000002 0.000002 -0.000000 0.000000 -1.540042 3.690187 6.142371 3.939032 7.948705 0.746807 -0.579466 1.574997 2.538707 0.000000 0.000003 -0.000001 -0.000009 -0.000001 0.000007 -0.000007 0.000018 -0.000037 -0.000001 0.000007 0.000007 -0.000000 0.000002 -0.000002 -0.000004 0.000004 0.000004 -0.000011 0.000000 -0.000027 -0.000004 -0.000005 -0.000000 -0.000003 -0.000001 0.000002 -0.018087 4.054254 0.511061 -0.018096 -4.054259 -0.511074 -0.000003 0.000008 -0.000009 0.000000 -0.000001 0.000003 0.269863 -12.717647 9.213972 34.476114 10.855110 55.219443 -0.000035 75.880383 0.000032 10.001631 0.702597 1.675518 -0.000001 0.000011 0.000015 0.000009 -0.000011 -0.000004 0.000004 -0.000004 0.000003 -0.000004 0.000001 0.000000 -1.849251 -3.581779 -6.586117 4.637210 -8.634134 -0.225417 -1.273755 0.137308 -2.094885 -0.000005 0.000003 0.000000 0.000001 -0.000003 0.000001 -0.000002 0.000004 0.000030 -0.000001 -0.000014 -0.000014 0.000004 0.000002 -0.000001 -0.000004 0.000004 0.000013 0.000011 0.000004 0.000034 0.000007 -0.000006 0.000002 0.000000 0.000001 0.000001 -0.000006 0.000002 0.000011 0.000003 0.000000 0.000072 0.000011 0.000001 -0.000014 -0.000003 -0.000003 0.000003 -1.694052 10.217328 19.440931 27.427210 -8.949611 -5.328060 -6.582732 9.212078 -10.745724 -10.309173 0.000006 -0.000006 0.000000 0.000001 0.000000 -2.675166 -15.025214 -19.625778 29.788200 9.860339 4.631539 -15.179052 4.391944 6.406749 -3.315966 -0.000010 -0.000001 0.000000 -0.000001 -0.000000 
1.682105 192.656418 3.370415 -14.972389 0.209947 1.158897 2.204333 0.610649 -1.127559 4.352786 0.388064 0.505349 4.349123 0.398155 0.511312 9.559204 1.650009 0.850873 -17.284974 14.408800 -7.972187 -0.000000 -0.000000 0.000001 -0.000000 -0.000000 0.000001 -0.000000 -0.000000 0.000001 1.147136 -13.686220 -11.561891 36.576158 3.544775 -60.009059 -0.000038 -80.244396 -0.000021 6.271157 -2.778875 5.927666 -0.000002 -0.001932 0.015970 0.000016 0.001928 -0.015952 0.000001 0.000007 -0.000002 -0.000004 -0.000001 0.000002 -1.540039 3.690187 6.142363 3.939034 7.948703 0.746813 -0.579468 1.574998 2.538706 0.000002 0.000001 -0.000000 -0.000001 0.000002 0.000008 -0.000009 0.000013 -0.000035 0.000005 0.000006 0.000012 -0.000003 -0.000002 0.000002 0.000001 0.000002 0.000002 -0.000014 -0.000003 -0.000023 -0.000003 -0.000002 0.000003 -0.000002 -0.000001 0.000002 -0.018084 4.054250 0.511066 -0.018099 -4.054259 -0.511078 0.000004 0.000006 -0.000005 -0.000003 -0.000001 0.000002 0.261504 -14.382664 9.080357 33.188828 10.693097 55.105273 -0.000074 76.995275 0.000070 10.020675 0.651963 1.650472 -0.000010 0.000016 0.000014 0.000001 -0.000011 -0.000003 0.000004 -0.000002 0.000002 -0.000001 0.000000 0.000002 -1.849259 -3.581775 -6.586120 4.637213 -8.634140 -0.225416 -1.273752 0.137311 -2.094889 0.000000 -0.000001 0.000005 -0.000003 -0.000000 -0.000002 -0.000001 0.000006 0.000031 0.000001 -0.000012 -0.000017 0.000001 -0.000000 0.000000 -0.000012 0.000009 0.000017 0.000013 0.000010 0.000030 0.000000 -0.000005 0.000002 0.000001 0.000000 0.000003 -0.000009 0.000007 0.000010 0.000001 0.000004 0.000072 0.000006 0.000003 -0.000017 0.000000 0.000001 -0.000001 -1.844706 8.391336 18.620241 26.791654 -9.028900 -5.532867 -5.966611 7.668551 -10.051561 -10.271899 0.000003 0.000001 -0.000001 0.000000 0.000000 -0.349327 -16.333134 -19.891738 27.063935 9.890867 5.313311 -14.410514 1.642711 6.538795 -3.358815 -0.000006 0.000003 0.000000 -0.000001 0.000000 
